<!-- SVG icons spritesheet.	Iconography courtesy of simpleicons.org, devicon.fr, and glyph.smarticons.co -->
<svg xmlns="https://www.w3.org/2000/svg" xmlns:xlink="http://www.w3.org/1999/xlink">
	<!-- Social icons -->
	<!-- Email -->
	<symbol id="icon-email" viewBox="0 0 17 16">
		<path d="M16.304,3.059 L1.701,3.059 C1.344,3.059 1.053,3.35 1.053,3.707 L1.053,12.324 C1.053,12.681 1.344,12.972 1.701,12.972 L16.304,12.972 C16.662,12.972 16.953,12.681 16.953,12.324 L16.953,3.707 C16.953,3.35 16.662,3.059 16.304,3.059 L16.304,3.059 Z M14.906,12.046 L12.022,8.643 L9.013,11.188 L5.955,8.57 L3.093,12.047 L1.847,12.047 L5.036,7.694 L1.966,5.094 L1.937,3.813 L9.013,9.344 L16.062,3.724 L16.062,5.094 L13.045,7.694 L16.169,12.032 L14.906,12.046 L14.906,12.046 Z"/>
	</symbol>
	<!-- Phone -->
	<symbol id="icon-phone" viewBox="0 0 16 16">
		<path d="M14.031,11.852 C13.603,11.313 12.908,10.532 12.313,10.458 C11.951,10.413 11.535,10.713 11.125,10.996 C11.045,11.036 10.427,11.404 10.352,11.426 C9.956,11.539 9.111,11.572 8.6,11.106 C8.108,10.656 7.33,9.823 6.702,9.06 C6.102,8.274 5.473,7.329 5.151,6.749 C4.815,6.148 5.057,5.353 5.265,5.003 C5.303,4.94 5.763,4.467 5.866,4.357 L5.881,4.375 C6.262,4.055 6.661,3.73 6.706,3.378 C6.78,2.792 6.181,1.939 5.753,1.399 C5.325,0.858 4.662,-0.089 3.759,0.045 C3.419,0.095 3.126,0.214 2.837,0.385 L2.829,0.376 C2.823,0.38 2.795,0.402 2.781,0.413 C2.772,0.418 2.764,0.421 2.756,0.426 L2.759,0.43 C2.593,0.558 2.119,0.912 2.065,0.96 C1.479,1.481 0.597,2.708 1.279,4.915 C1.785,6.555 2.864,8.481 4.334,10.429 L4.326,10.436 C4.398,10.53 4.472,10.615 4.547,10.706 C4.617,10.799 4.686,10.891 4.758,10.983 L4.768,10.976 C6.328,12.855 7.964,14.357 9.457,15.243 C11.467,16.435 12.896,15.898 13.556,15.471 C13.618,15.43 14.09,15.063 14.25,14.942 L14.254,14.946 C14.26,14.94 14.264,14.932 14.272,14.926 C14.284,14.917 14.31,14.897 14.315,14.893 L14.309,14.885 C14.551,14.651 14.745,14.401 14.879,14.086 C15.23,13.257 14.459,12.393 14.031,11.852 L14.031,11.852 Z"/>
	</symbol>
	<!-- Print -->
	<symbol id="icon-print" viewBox="0 0 17 16">
		<path d="M5,11 L4.99999993,14.9798584 L10.9933471,14.9798584 L10.9933472,11 L5,11 Z"/>
		<rect x="4" y="0" width="7.948" height="2.96"/>
		<path d="M0.041,4.016 L0.041,13.016 L3.95141967,13.016 L3.95141967,10.0096256 L12,10.0096256 L12,13.016 L16.041,13.016 L16.041,4.016 L0.041,4.016 L0.041,4.016 Z M3.01600005,6.02929693 L1.96900005,6.02929693 L1.969,4.953 L3.016,4.953 L3.01600005,6.02929693 Z M5.016,5.969 L3.969,5.969 L3.969,4.969 L5.016,4.969 L5.016,5.969 L5.016,5.969 Z"/>
	</symbol>
	<!-- LinkedIn -->
	<symbol id="icon-linkedin" viewBox="0 0 16 16">
		<path d="M13.632 13.635h-2.37V9.922c0-.886-.018-2.025-1.234-2.025-1.235 0-1.424.964-1.424 1.96v3.778h-2.37V6H8.51V7.04h.03c.318-.6 1.092-1.233 2.247-1.233 2.4 0 2.845 1.58 2.845 3.637v4.188zM3.558 4.955c-.762 0-1.376-.617-1.376-1.377 0-.758.614-1.375 1.376-1.375.76 0 1.376.617 1.376 1.375 0 .76-.617 1.377-1.376 1.377zm1.188 8.68H2.37V6h2.376v7.635zM14.816 0H1.18C.528 0 0 .516 0 1.153v13.694C0 15.484.528 16 1.18 16h13.635c.652 0 1.185-.516 1.185-1.153V1.153C16 .516 15.467 0 14.815 0z"/>
	</symbol>
	<!-- Git-->
	<symbol id="icon-git" viewBox="0 0 50 50">
	<path d="M46.794,22.088L27.912,3.206C27.108,2.402,26.054,2,25,2s-2.108,0.402-2.912,1.206L18.354,6.94l4.624,4.624   c1.533-0.902,3.533-0.709,4.85,0.607c1.316,1.316,1.509,3.316,0.607,4.85l4.543,4.543c1.533-0.902,3.533-0.709,4.85,0.607   c1.562,1.562,1.562,4.095,0,5.657c-1.562,1.562-4.095,1.562-5.657,0c-1.316-1.316-1.509-3.316-0.607-4.85l-4.543-4.543   c-0.324,0.19-0.666,0.33-1.021,0.421v12.285c1.722,0.446,3,1.997,3,3.859c0,2.209-1.791,4-4,4s-4-1.791-4-4   c0-1.862,1.278-3.413,3-3.859V18.857c-0.669-0.173-1.305-0.505-1.828-1.028c-1.316-1.316-1.509-3.316-0.607-4.85L16.94,8.354   L3.206,22.088c-1.608,1.608-1.608,4.215,0,5.823l18.882,18.882C22.892,47.598,23.946,48,25,48s2.108-0.402,2.912-1.206   l18.882-18.882C48.402,26.304,48.402,23.696,46.794,22.088z"/>
	</symbol>
	<!-- Github -->
	<symbol id="icon-github" viewBox="0 0 16 16">
		<path d="M8 0C3.58 0 0 3.582 0 8c0 3.535 2.292 6.533 5.47 7.59.4.075.547-.172.547-.385 0-.19-.007-.693-.01-1.36-2.226.483-2.695-1.073-2.695-1.073-.364-.924-.89-1.17-.89-1.17-.725-.496.056-.486.056-.486.803.056 1.225.824 1.225.824.714 1.223 1.873.87 2.33.665.072-.517.278-.87.507-1.07-1.777-.2-3.644-.888-3.644-3.953 0-.873.31-1.587.823-2.147-.083-.202-.358-1.015.077-2.117 0 0 .672-.215 2.2.82.638-.178 1.323-.266 2.003-.27.68.004 1.364.092 2.003.27 1.527-1.035 2.198-.82 2.198-.82.437 1.102.163 1.915.08 2.117.513.56.823 1.274.823 2.147 0 3.073-1.87 3.75-3.653 3.947.287.246.543.735.543 1.48 0 1.07-.01 1.933-.01 2.195 0 .215.144.463.55.385C13.71 14.53 16 11.534 16 8c0-4.418-3.582-8-8-8"/>
	</symbol>
	<!-- Twitter -->
	<symbol id="icon-twitter" viewBox="0 0 16 16">
		<path d="M16 3.038c-.59.26-1.22.437-1.885.517.677-.407 1.198-1.05 1.443-1.816-.634.375-1.337.648-2.085.795-.598-.638-1.45-1.036-2.396-1.036-1.812 0-3.282 1.468-3.282 3.28 0 .258.03.51.085.75C5.152 5.39 2.733 4.084 1.114 2.1.83 2.583.67 3.147.67 3.75c0 1.14.58 2.143 1.46 2.732-.538-.017-1.045-.165-1.487-.41v.04c0 1.59 1.13 2.918 2.633 3.22-.276.074-.566.114-.865.114-.21 0-.416-.02-.617-.058.418 1.304 1.63 2.253 3.067 2.28-1.124.88-2.54 1.404-4.077 1.404-.265 0-.526-.015-.783-.045 1.453.93 3.178 1.474 5.032 1.474 6.038 0 9.34-5 9.34-9.338 0-.143-.004-.284-.01-.425.64-.463 1.198-1.04 1.638-1.7z"/>
	</symbol>

	<!-- Section icons -->
	<!-- Skills -->
	<symbol id="icon-skills" viewBox="0 0 16 16">
		<path d="M10.926,3.121 C10.926,4.801 9.617,8.012 8.004,8.012 C6.391,8.012 5.081,4.801 5.081,3.121 C5.081,1.441 6.391,0.081 8.004,0.081 C9.617,0.081 10.926,1.441 10.926,3.121 L10.926,3.121 Z"/>
		<path d="M9.033,11.796 L11.426,9.375 L12.705,10.71 L14.348,9.048 C13.717,8.398 12.943,8.05 11.679,8.05 C10.825,9.206 7.99,9.503 7.99,9.503 C7.99,9.503 5.091,9.218 4.237,8.076 C0.144,8.076 0.02,13.986 0.02,13.986 L11.12,13.986 L9.033,11.796 L9.033,11.796 Z"/>
		<path d="M15.094,9.801 L12.713,12.182 L11.297,10.765 L10.372,11.689 L12.714,14.03 L16.02,10.726 L15.094,9.801 Z"/>
	</symbol>
	<!-- Experience -->
	<symbol id="icon-experience" viewBox="0 0 16 16">
		<path d="M8.048,0 C3.63045083,0 0.048,3.582 0.048,8 C0.048,12.418 3.63045083,16 8.048,16 C12.4665577,16 16.048,12.418 16.048,8 C16.048,3.582 12.4665577,0 8.048,0 L8.048,0 Z M8,15 C4.13533409,15 1,11.8671467 1,8 C1,4.13384159 4.13533409,1 8,1 C11.8646659,1 15,4.13384159 15,8 C15,11.868135 11.8646659,15 8,15 L8,15 Z"/>
		<path d="M2.959,2.684 C2.689,4.028 3.694,6.083 5.831,6.583 C7.967,7.083 7.049,6.667 6.717,6 C6.383,5.333 6.682,4.833 7.199,4.667 C7.717,4.5 7.586,4.96 8.354,4 C8.548,2 6.882,3.973 6.716,3.14 C8.366,1.223 5.95,0.5 5.249,0.75 C4.548,1 3.229,1.339 2.959,2.684 L2.959,2.684 Z"/>
		<path d="M6.873,7.694 C6.749,7.749 6.171,8.11 5.972,8.36 C5.773,8.61 5.686,9.138 5.972,9.36 C6.258,9.583 5.956,10.639 6.727,10.833 C7.498,11.027 8.27,11.14 8.299,11.75 C8.326,12.36 8.227,13.777 7.856,13.917 C8.356,14.194 9.573,12.722 10.001,11.944 C10.43,11.167 10.573,10.055 10.544,9.777 C10.515,9.5 10.715,8.917 10.801,8.167 C10.886,7.417 10.231,7.367 10.146,7.034 C10.059,6.7 9.943,6.333 6.873,7.694 L6.873,7.694 Z"/>
		<path d="M13.125,4 C13.125,4 11.113,4.861 12.481,6.14 C13.847,7.417 14.543,8.63 14.476,8.908 C14.414,9.184 13.096,10.614 13.853,10.502 C14.614,10.391 15.175,8.891 15.296,8.001 C15.415,7.111 14.372,5.362 14.329,5.224 C14.293,5.083 13.607,4.015 13.125,4 L13.125,4 Z"/>
	</symbol>
	<!-- Education -->
	<symbol id="icon-education" viewBox="0 0 16 16">
		<g transform="translate(0, 7)">
			<path d="M8,5.099 L4.125,2.64 L4.125,5.794 C4.125,5.794 4.125,6.342 4.48,6.427 C5.594,6.691 6.759,6.943 8,6.943 C9.27,6.943 10.485,6.752 11.604,6.4 C11.875,6.342 11.875,5.849 11.875,5.849 L11.875,2.64 L8,5.099 L8,5.099 Z"/>
			<path d="M1.246,0.066 L0.766,0.066 C0.355,1.63 0.052,6.603 0.052,6.912 C0.052,6.94 0.059,6.969 0.065,6.996 L1.948,6.996 C1.954,6.969 1.959,6.94 1.959,6.912 C1.958,6.604 1.654,1.631 1.246,0.066 L1.246,0.066 Z"/>
		</g>
		<path d="M8,0.062 L0,5.043 L1.33,6.042 L6.885,4.784 C6.977,4.255 7.413,3.843 7.969,3.843 C8.59,3.843 9.094,4.347 9.094,4.968 C9.094,5.589 8.59,6.093 7.969,6.093 C7.655,6.093 7.385,5.952 7.186,5.741 L2.374,6.83 L8,10.702 L16,5.043 L8,0.062 L8,0.062 Z"/>
	</symbol>
	<!-- Portfolio -->
	<symbol id="icon-portfolio" viewBox="0 0 16 16">
		<path d="M13.562,2.083 L1.437,2.083 C0.643,2.083 -0.00100000005,2.734 -0.00100000005,3.536 L-0.00100000005,12.5 C-0.00100000005,13.304 0.643,13.954 1.437,13.954 L13.562,13.954 C14.356,13.954 15,13.304 15,12.5 L15,3.536 C15,2.734 14.356,2.083 13.562,2.083 L13.562,2.083 Z M7.504,4.906 C8.359,4.906 9.055,5.612 9.055,6.483 C9.055,7.355 8.36,9.021 7.504,9.021 C6.648,9.021 5.953,7.355 5.953,6.483 C5.953,5.612 6.648,4.906 7.504,4.906 L7.504,4.906 Z M11.004,12.031 L4,12.031 C4,12.031 3.881,8.955 5.677,8.955 C6.052,9.549 6.569,10.119 7.52,10.119 C8.469,10.119 8.921,9.545 9.295,8.941 C11.316,8.941 11.004,12.031 11.004,12.031 L11.004,12.031 Z"/>
		<path d="M5.78216667,1.682 C5.78216667,1.254 6.07716667,0.907 6.44133333,0.907 L8.53466667,0.907 C8.89883333,0.907 9.19383333,1.255 9.19383333,1.682 L9.19383333,2.567 L9.9755,2.567 L9.9755,1.376 C9.9755,0.634 9.46133333,0.029 8.8305,0.029 L6.14966667,0.029 C5.518,0.029 5.003,0.633 5.003,1.376 L5.003,2.567 L5.78216667,2.567 L5.78216667,1.682 L5.78216667,1.682 Z"/>
	</symbol>
	<!-- Publication -->
	<symbol id="icon-publication" viewBox="0 0 16 16">
		<path d="M13.562,2.083 L1.437,2.083 C0.643,2.083 -0.00100000005,2.734 -0.00100000005,3.536 L-0.00100000005,12.5 C-0.00100000005,13.304 0.643,13.954 1.437,13.954 L13.562,13.954 C14.356,13.954 15,13.304 15,12.5 L15,3.536 C15,2.734 14.356,2.083 13.562,2.083 L13.562,2.083 Z M7.504,4.906 C8.359,4.906 9.055,5.612 9.055,6.483 C9.055,7.355 8.36,9.021 7.504,9.021 C6.648,9.021 5.953,7.355 5.953,6.483 C5.953,5.612 6.648,4.906 7.504,4.906 L7.504,4.906 Z M11.004,12.031 L4,12.031 C4,12.031 3.881,8.955 5.677,8.955 C6.052,9.549 6.569,10.119 7.52,10.119 C8.469,10.119 8.921,9.545 9.295,8.941 C11.316,8.941 11.004,12.031 11.004,12.031 L11.004,12.031 Z"/>
		<path d="M5.78216667,1.682 C5.78216667,1.254 6.07716667,0.907 6.44133333,0.907 L8.53466667,0.907 C8.89883333,0.907 9.19383333,1.255 9.19383333,1.682 L9.19383333,2.567 L9.9755,2.567 L9.9755,1.376 C9.9755,0.634 9.46133333,0.029 8.8305,0.029 L6.14966667,0.029 C5.518,0.029 5.003,0.633 5.003,1.376 L5.003,2.567 L5.78216667,2.567 L5.78216667,1.682 L5.78216667,1.682 Z"/>
	</symbol>

	<!-- About/Contact-->
	<symbol id="icon-about" viewBox="0 0 17 16">
		<path d="M8.979,0.021 C4.581,0.021 1.011,2.813 1.011,6.256 C1.011,9.399 3.987,11.99 7.852,12.42 L5.805,15.971 L11.924,12.045 C14.864,11.128 16.947,8.884 16.947,6.256 C16.947,2.812 13.379,0.021 8.979,0.021 L8.979,0.021 Z M9.04,9.018 L7.972,9.018 L7.972,7.075 L6.032,7.075 L6.032,9.018 L4.96,9.041 L4.96,3.992 L6.032,3.969 L6.032,5.987 L7.972,5.987 L7.972,3.969 L9.04,3.969 L9.04,9.018 L9.04,9.018 Z M11,9.018 L9.954,9.018 L9.954,5.938 L11,5.938 L11,9.018 L11,9.018 Z M11.031,5.041 L9.954,5.041 L9.954,3.937 L11.031,3.937 L11.031,5.041 L11.031,5.041 Z M14.031,9.016 L12.968,9.016 L12.968,7.963 L14.031,7.963 L14.031,9.016 L14.031,9.016 Z M14.016,7.016 L12.969,7.016 L12.969,3.954 L14.016,3.954 L14.016,7.016 L14.016,7.016 Z"/>
	</symbol>

	<!-- Skill icons -->
	<!-- HTML -->
	<symbol id="icon-html" viewBox="0 0 14 16">
		<path d="M0 0h14l-1.273 14.375L6.984 16l-5.71-1.625L0 0zm4.687 6.5l-.155-1.812 6.706.002.154-1.748-8.784-.002.465 5.34h6.084l-.217 2.284L7 11.1l-1.97-.54-.125-1.406h-1.74l.22 2.78L7 12.9l3.586-.962.496-5.438H4.687z"/>
	</symbol>
	<!-- CSS -->
	<symbol id="icon-css" viewBox="0 0 128 128">
		<path d="M8.76 1l10.055 112.883 45.118 12.58 45.244-12.626 10.063-112.837h-110.48zm89.591 25.862l-3.347 37.605.01.203-.014.467v-.004l-2.378 26.294-.262 2.336-28.36 7.844v.001l-.022.019-28.311-7.888-1.917-21.739h13.883l.985 11.054 15.386 4.17-.004.008v-.002l15.443-4.229 1.632-18.001h-32.282999999999994l-.277-3.043-.631-7.129-.331-3.828h34.748999999999995l1.264-14h-52.926l-.277-3.041-.63-7.131-.332-3.828h69.281l-.331 3.862z"/>
	</symbol>
	<!-- Javascript -->
	<symbol id="icon-javascript" viewBox="0 0 128 128">
		<path d="M2 1v125h125v-125h-125zm66.119 106.513c-1.845 3.749-5.367 6.212-9.448 7.401-6.271 1.44-12.269.619-16.731-2.059-2.986-1.832-5.318-4.652-6.901-7.901l9.52-5.83c.083.035.333.487.667 1.071 1.214 2.034 2.261 3.474 4.319 4.485 2.022.69 6.461 1.131 8.175-2.427 1.047-1.81.714-7.628.714-14.065-.001-10.115.046-20.188.046-30.188h11.709c0 11 .06 21.418 0 32.152.025 6.58.596 12.446-2.07 17.361zm48.574-3.308c-4.07 13.922-26.762 14.374-35.83 5.176-1.916-2.165-3.117-3.296-4.26-5.795 4.819-2.772 4.819-2.772 9.508-5.485 2.547 3.915 4.902 6.068 9.139 6.949 5.748.702 11.531-1.273 10.234-7.378-1.333-4.986-11.77-6.199-18.873-11.531-7.211-4.843-8.901-16.611-2.975-23.335 1.975-2.487 5.343-4.343 8.877-5.235l3.688-.477c7.081-.143 11.507 1.727 14.756 5.355.904.916 1.642 1.904 3.022 4.045-3.772 2.404-3.76 2.381-9.163 5.879-1.154-2.486-3.069-4.046-5.093-4.724-3.142-.952-7.104.083-7.926 3.403-.285 1.023-.226 1.975.227 3.665 1.273 2.903 5.545 4.165 9.377 5.926 11.031 4.474 14.756 9.271 15.672 14.981.882 4.916-.213 8.105-.38 8.581z"/>
	</symbol>
	<!-- C/C++ -->
	<symbol id="icon-c" viewBox="0 0 50 50">	
<path d="M 43.910156 12.003906 L 27.070313 2.539063 C 25.792969 1.824219 24.207031 1.824219 22.929688 2.539063 L 6.089844 12.003906 C 4.800781 12.726563 4 14.082031 4 15.535156 L 4 34.464844 C 4 35.917969 4.800781 37.273438 6.089844 37.996094 L 22.929688 47.460938 C 23.570313 47.820313 24.285156 48 25 48 C 25.714844 48 26.429688 47.820313 27.070313 47.460938 L 43.910156 37.996094 C 45.199219 37.273438 46 35.917969 46 34.464844 L 46 15.535156 C 46 14.082031 45.199219 12.726563 43.910156 12.003906 Z M 25 37 C 18.382813 37 13 31.617188 13 25 C 13 18.382813 18.382813 13 25 13 C 28.78125 13 32.273438 14.753906 34.542969 17.742188 L 30.160156 20.277344 C 28.84375 18.835938 26.972656 18 25 18 C 21.140625 18 18 21.140625 18 25 C 18 28.859375 21.140625 32 25 32 C 26.972656 32 28.84375 31.164063 30.160156 29.722656 L 34.542969 32.257813 C 32.273438 35.246094 28.78125 37 25 37 Z M 37 26 L 35 26 L 35 28 L 33 28 L 33 26 L 31 26 L 31 24 L 33 24 L 33 22 L 35 22 L 35 24 L 37 24 Z M 44 26 L 42 26 L 42 28 L 40 28 L 40 26 L 38 26 L 38 24 L 40 24 L 40 22 L 42 22 L 42 24 L 44 24 Z "/>
        </symbol>
	<!-- PYTHON -->
	<symbol id="icon-python" viewBox="0 0 125 125">
<path d="M86.674,33.332H66.66V13.327c-11.106-4.604-23.04-4.265-33.334,0v20.005h-20c-4.603,11.107-4.264,23.039,0,33.336h20v20.007  c11.107,4.603,23.041,4.264,33.334,0V66.668h20.014C91.276,55.558,90.938,43.625,86.674,33.332z M33.326,56.668v3.333H18.053  c-1.863-6.563-1.863-13.445,0-20.002h31.94v-6.667h-10V18.055c3.255-0.922,6.614-1.389,10.02-1.389c3.391,0,6.732,0.466,9.98,1.387  v25.28c0,1.841-1.494,3.333-3.333,3.333H43.327C37.806,46.667,33.326,51.144,33.326,56.668z M81.946,60.001H49.994v6.667h10v15.279  c-3.255,0.921-6.611,1.387-10.019,1.387c-3.389,0-6.732-0.466-9.98-1.387V56.668c0-1.844,1.493-3.334,3.333-3.334H56.66  c5.521,0,10-4.476,10-10v-3.335h15.286C83.809,46.56,83.809,53.441,81.946,60.001z"/>
	</symbol>
	<!-- Sensor -->
	<symbol id="icon-sensor" viewBox="0 0 128 128">
<path d="M46.759,60.918c6.021,0,10.918-4.898,10.918-10.918c0-6.02-4.897-10.918-10.918-10.918c-4.916,0-9.081,3.268-10.444,7.744   H11.026v6.348h25.289C37.678,57.65,41.843,60.918,46.759,60.918z M46.759,41.463c4.707,0,8.536,3.829,8.536,8.536   c0,4.708-3.829,8.536-8.536,8.536S38.223,54.707,38.223,50C38.223,45.292,42.052,41.463,46.759,41.463z"/><path d="M33.751,63.008c-1.085-1.086-2.846-1.086-3.931,0c-1.085,1.084-1.085,2.844,0.001,3.93   c4.669,4.67,10.803,7.004,16.938,7.004c6.134,0,12.268-2.334,16.938-7.004c9.34-9.34,9.34-24.538,0-33.877   c-9.34-9.339-24.535-9.339-33.876,0.001c-1.085,1.085-1.085,2.845,0,3.931c1.085,1.084,2.845,1.084,3.931,0   c7.172-7.172,18.842-7.173,26.015-0.001s7.173,18.843,0,26.017C52.593,70.178,40.923,70.178,33.751,63.008z"/><path d="M23.302,70.648c-0.775,0.773-0.775,2.031,0,2.807c6.266,6.266,14.596,9.717,23.457,9.717l0,0   c8.861,0,17.192-3.451,23.456-9.717c12.935-12.934,12.935-33.979,0-46.913c-6.265-6.266-14.595-9.716-23.456-9.715   c-8.861,0-17.191,3.45-23.457,9.716c-0.775,0.775-0.775,2.032,0,2.807c0.774,0.775,2.032,0.775,2.807,0   c11.387-11.386,29.913-11.387,41.3,0c11.386,11.387,11.386,29.915,0,41.299c-5.516,5.516-12.849,8.553-20.649,8.553   s-15.135-3.037-20.65-8.553C25.333,69.873,24.076,69.873,23.302,70.648z"/><path d="M76.623,20.133C60.156,3.666,33.36,3.666,16.893,20.135c-0.466,0.465-0.466,1.219,0,1.684c0.466,0.465,1.22,0.465,1.685,0   C34.116,6.28,59.4,6.279,74.939,21.818c15.539,15.54,15.539,40.825,0,56.364S34.117,93.721,18.577,78.18   c-0.465-0.465-1.219-0.465-1.685,0s-0.466,1.219,0,1.686c8.235,8.234,19.05,12.352,29.866,12.352   c10.815-0.002,21.632-4.117,29.864-12.352C93.092,63.398,93.092,36.602,76.623,20.133z"/>
	</symbol>


	<!-- Sass -->
	<symbol id="icon-sass" viewBox="0 0 16 16">
		<path d="M8 0c4.418 0 8 3.582 8 8s-3.582 8-8 8-8-3.582-8-8 3.582-8 8-8zM6.41 10.665c.117.43.104.832-.016 1.195l-.044.12c-.016.04-.034.08-.052.117-.093.193-.217.373-.37.54-.465.506-1.114.698-1.393.536-.3-.174-.15-.89.39-1.46.58-.612 1.413-1.006 1.413-1.006v-.002l.072-.04zm6.608-7.24c-.362-1.422-2.718-1.89-4.948-1.097C6.743 2.8 5.307 3.54 4.274 4.506 3.046 5.654 2.85 6.654 2.93 7.072c.285 1.474 2.305 2.438 3.136 3.153v.004c-.245.12-2.037 1.026-2.457 1.953-.443.98.07 1.68.41 1.775 1.052.293 2.13-.234 2.71-1.1.56-.835.515-1.913.27-2.45.337-.088.728-.128 1.226-.07 1.403.164 1.68 1.04 1.626 1.407-.053.367-.347.568-.446.63-.098.06-.128.08-.12.126.012.067.058.065.142.05.115-.02.737-.298.763-.975.035-.86-.79-1.82-2.247-1.795-.6.01-.978.067-1.25.17-.02-.024-.042-.047-.063-.07-.9-.962-2.568-1.642-2.497-2.935.025-.47.19-1.708 3.202-3.21 2.47-1.23 4.445-.89 4.786-.14.49 1.07-1.055 3.062-3.618 3.35-.977.11-1.49-.27-1.62-.41-.134-.15-.154-.155-.204-.127-.082.045-.03.176 0 .254.076.2.39.552.926.728.47.155 1.618.24 3.004-.297 1.554-.6 2.766-2.272 2.41-3.67z"/>
	</symbol>
	<!-- Gulp -->
	<symbol id="icon-gulp" viewBox="0 0 16 16">
		<path d="M10.108 12.96l.424-.724s-.964.395-2.578.395c-1.614 0-2.564-.386-2.564-.386l.475.79.168 2.485c0 .265.878.48 1.96.48 1.084 0 1.962-.215 1.962-.48l.153-2.56zm.41-4.705c-.513.03-.77.603-1.028 1.205-.095.22-.42 1.16-.633 1.044-.213-.116.276-.888.413-1.347-.158.116-.738.567-.887.144-.24.207-.754.317-.696-.22-.128.227-.415.544-.76.41-.45-.17.263-1.612.44-1.54.178.074-.035.4-.09.53-.124.28-.266.633-.17.705.16.124.603-.468.613-.48.083-.11.32-.826.51-.744.19.083-.475 1.028-.227 1.216.05.038.255-.024.38-.158.08-.088.052-.28.32-.922.27-.642.51-1.44.694-1.38.184.06.032.47-.034.624-.31.716-.847 1.9-.594 1.81.25-.088.383-.094.63-.384.25-.29.237-.768.4-.758.168.01.14.164.1.28.16-.186.77-.578.917-.19.174.46-.87 1.124-.61 1.09.254-.033.665-.293.84-.53l.484-4.346s-.485.403-3.58.403c-3.087 0-3.524-.395-3.524-.395l.41 3.967c.22-.62.738-1.876 1.555-1.834.373.02.87.735.444.76-.18.01-.198-.358-.41-.412-.155-.037-.37.088-.507.224-.276.27-.87 1.336-.79 1.867.1.678.933-.235 1.074-.506.1-.19.168-.756.385-.697.218.06-.02.643-.176 1.16-.178.58-.27 1.19-.493 1.12-.222-.07.14-.82.126-.95-.208.193-.593.68-1.084.44l.254 2.462s.68.536 2.724.536 2.748-.528 2.748-.528l.317-2.853c-.26.253-1.08.702-1.133.196-.043-.406.888-.995.65-1.014h-.002zM11.57.43L9.794 2.3 9.47 3.57c1.256.08 2.13.257 2.13.463 0 .28-1.612.506-3.6.506s-3.6-.225-3.6-.504c0-.28 1.612-.507 3.6-.507.282 0 .563.004.844.013l.374-1.52 1.887-2c.046-.053.187-.005.316.107.127.108.195.237.157.29l-.003.004-.004.006zM9.01 4.3s-.35 0-.408-.054c-.015-.016-.024-.038-.024-.06 0-.038.026-.06.06-.073l.03.05c-.014.004-.02.01-.022.015 0 .028.21.047.37.045.16-.002.355-.016.356-.043 0-.008-.015-.016-.04-.022l.03-.048c.042.013.078.038.078.08 0 .074-.094.086-.154.094-.072.01-.275.016-.275.016z"/>
	</symbol>
	<!-- Command Line -->
	<symbol id="icon-cmd" viewBox="0 0 1024 1024">
		<path d="M992 128h-960c-17.664 0-32 14.336-32 32v704c0 17.696 14.336 32 32 32h960c17.696 0 32-14.304 32-32v-704c0-17.664-14.304-32-32-32zM960 800c0 17.696-14.304 32-32 32h-832c-17.664 0-32-14.304-32-32v-576c0-17.664 14.336-32 32-32h832c17.696 0 32 14.336 32 32v576zM303.936 388.512l-123.36-123.392c-12-12-31.456-12-43.456 0s-12 31.456 0 43.456l107.456 107.424-107.456 107.456c-12 12-12 31.424 0 43.424s31.456 12 43.456 0l123.36-123.36c2.432-1.344 4.896-2.56 6.944-4.608 6.304-6.304 9.12-14.656 8.768-22.912 0.32-8.256-2.464-16.608-8.768-22.88-2.048-2.048-4.512-3.264-6.944-4.608zM608 512h-192c-17.664 0-32 14.336-32 32 0 17.696 14.336 32 32 32h192c17.696 0 32-14.304 32-32 0-17.664-14.304-32-32-32z"/>
	</symbol>
	<!-- Adobe Photoshop -->
	<symbol id="icon-photoshop" viewBox="0 0 70.25 69.594">
		<path class="cls-1" d="M70.265 69.588H0V0h70.265v69.588zm-5.586-5.513H5.732V5.662H64.68v58.412zm-46.21-44.16a45.312 45.312 0 0 1 8.1-.612c3.878 0 6.723.83 8.575 2.4a8.366 8.366 0 0 1 2.844 6.51 8.988 8.988 0 0 1-2.5 6.683c-2.112 2.14-5.43 3.145-9.18 3.145a14.73 14.73 0 0 1-2.586-.174v11.1H18.47v-29.05zm5.257 13.716a10.553 10.553 0 0 0 2.586.22c3.965 0 6.378-1.967 6.378-5.418 0-3.276-2.24-5.024-5.9-5.024a14.435 14.435 0 0 0-3.058.262v9.96zm15.9 10.4a11.7 11.7 0 0 0 5.387 1.53c2.327 0 3.36-.962 3.36-2.36 0-1.44-.86-2.184-3.446-3.1-4.094-1.44-5.818-3.712-5.775-6.2 0-3.756 3.06-6.683 7.93-6.683a12.18 12.18 0 0 1 5.558 1.267l-1.033 3.8a9.33 9.33 0 0 0-4.44-1.223c-1.9 0-2.93.92-2.93 2.23 0 1.354.99 2.008 3.664 2.97 3.793 1.4 5.56 3.364 5.6 6.508 0 3.844-2.972 6.684-8.532 6.684a13.367 13.367 0 0 1-6.377-1.53z" fill-rule="evenodd"/>
	</symbol>
	<!-- WordPress -->
	<symbol id="icon-wordpress" viewBox="0 0 16 16">
		<path d="M14.312 4.55c.56 1.024.88 2.2.88 3.45 0 2.653-1.438 4.97-3.576 6.217l2.197-6.352c.41-1.026.547-1.847.547-2.576 0-.266-.018-.512-.048-.74m-5.32.077c.432-.022.822-.068.822-.068.388-.047.342-.616-.045-.594 0 0-1.167.092-1.92.092-.705 0-1.893-.092-1.893-.092-.388-.022-.433.57-.046.593 0 0 .368.045.756.067l1.12 3.07-1.574 4.72-2.62-7.79c.434-.022.824-.068.824-.068.387-.047.342-.616-.046-.594 0 0-1.165.092-1.917.092-.135 0-.294-.004-.463-.01C3.276 2.1 5.487.81 8 .81c1.872 0 3.577.715 4.857 1.888-.03-.002-.06-.006-.093-.006-.707 0-1.208.615-1.208 1.276 0 .593.342 1.095.706 1.687.274.48.594 1.095.594 1.984 0 .615-.237 1.33-.548 2.325l-.717 2.397-2.6-7.733zM8 15.193c-.706 0-1.387-.104-2.032-.293l2.158-6.27 2.21 6.056c.016.035.033.068.052.1-.747.262-1.55.407-2.388.407M.807 8c0-1.043.224-2.033.623-2.927l3.43 9.4C2.463 13.307.808 10.847.808 8M8 0C3.59 0 0 3.59 0 8s3.59 8 8 8 8-3.59 8-8-3.59-8-8-8"/>
	</symbol>
	<!-- Cross-browser -->
	<symbol id="icon-browsers" viewBox="0 0 16 17">
		<path d="M7.494,14.958 C3.361,14.958 0,11.622 0,7.52 C0,3.418 3.361,0.082 7.494,0.082 C11.627,0.082 14.989,3.418 14.989,7.52 C14.989,11.622 11.627,14.958 7.494,14.958 L7.494,14.958 Z M7.51,0.938 C3.887,0.938 0.938,3.886 0.938,7.51 C0.938,11.135 3.887,14.083 7.51,14.083 C11.135,14.083 14.083,11.135 14.083,7.51 C14.083,3.886 11.135,0.938 7.51,0.938 L7.51,0.938 Z"/>
		<rect x="7" y="1" width="0.922" height="14.084"/>
		<rect x="0" y="7" width="13.96" height="0.922"/>
		<rect x="1" y="4" width="12.406" height="0.906"/>
		<rect x="1" y="10" width="12.406" height="0.922"/>
		<path d="M7.317,14.854 C4.72,13.581 3.043,10.662 3.043,7.417 C3.043,4.247 4.666,1.355 7.181,0.05 L7.642,0.937 C5.455,2.074 4.043,4.617 4.043,7.417 C4.043,10.282 5.502,12.849 7.757,13.955 L7.317,14.854 L7.317,14.854 Z"/>
		<path d="M7.74,14.789 L7.271,13.906 C9.41,12.772 10.792,10.225 10.792,7.417 C10.792,4.642 9.433,2.107 7.332,0.96 L7.811,0.083 C10.229,1.401 11.792,4.28 11.792,7.417 C11.793,10.592 10.201,13.485 7.74,14.789 L7.74,14.789 Z"/>
	</symbol>
	<!-- Responsive design -->
	<symbol id="icon-responsive" viewBox="0 0 17 16">
		<path d="M5,9 L13.066,9 L13.066,11.8638731 L16.916,8.0438731 L13.066,4.0308731 L13,7 L5,7 L4.886,4.0308731 L1.03,8.0688731 L4.886,11.9348731 L5,9 Z"/>
	</symbol>
	<!-- Remote -->
	<symbol id="icon-remote" viewBox="0 0 1024 1024">
		<path d="M214 554q124-122 299-122t297 122l-84 86q-88-88-214-88t-214 88zM384 726q52-52 128-52t128 52l-128 128zM42 384q196-194 471-194t469 194l-86 86q-160-158-384-158t-384 158z"/>
	</symbol>

	<!-- Signal Analyzers -->
	<symbol id="icon-sa" viewBox="0 0 1024 1024">
		<path d="M214 554q124-122 299-122t297 122l-84 86q-88-88-214-88t-214 88zM384 726q52-52 128-52t128 52l-128 128zM42 384q196-194 471-194t469 194l-86 86q-160-158-384-158t-384 158z"/>
	</symbol>
	<!-- Android -->
	<symbol id="icon-android" viewBox="0 0 553 553">
<path d="M76.774,179.141c-9.529,0-17.614,3.323-24.26,9.969c-6.646,6.646-9.97,14.621-9.97,23.929v142.914c0,9.541,3.323,17.619,9.97,24.266c6.646,6.646,14.731,9.97,24.26,9.97c9.522,0,17.558-3.323,24.101-9.97c6.53-6.646,9.804-14.725,9.804-24.266V213.039c0-9.309-3.323-17.283-9.97-23.929C94.062,182.464,86.082,179.141,76.774,179.141z"/>
<path d="M351.972,50.847L375.57,7.315c1.549-2.882,0.998-5.092-1.658-6.646c-2.883-1.34-5.098-0.661-6.646,1.989l-23.928,43.88c-21.055-9.309-43.324-13.972-66.807-13.972c-23.488,0-45.759,4.664-66.806,13.972l-23.929-43.88c-1.555-2.65-3.77-3.323-6.646-1.989c-2.662,1.561-3.213,3.764-1.658,6.646l23.599,43.532c-23.929,12.203-42.987,29.198-57.167,51.022c-14.18,21.836-21.273,45.698-21.273,71.628h307.426c0-25.924-7.094-49.787-21.273-71.628C394.623,80.045,375.675,63.05,351.972,50.847z M215.539,114.165c-2.552,2.558-5.6,3.831-9.143,3.831c-3.55,0-6.536-1.273-8.972-3.831c-2.436-2.546-3.654-5.582-3.654-9.137c0-3.543,1.218-6.585,3.654-9.137c2.436-2.546,5.429-3.819,8.972-3.819s6.591,1.273,9.143,3.819c2.546,2.558,3.825,5.594,3.825,9.137C219.357,108.577,218.079,111.619,215.539,114.165z M355.625,114.165c-2.441,2.558-5.434,3.831-8.971,3.831c-3.551,0-6.598-1.273-9.145-3.831c-2.551-2.546-3.824-5.582-3.824-9.137c0-3.543,1.273-6.585,3.824-9.137c2.547-2.546,5.594-3.819,9.145-3.819c3.543,0,6.529,1.273,8.971,3.819c2.438,2.558,3.654,5.594,3.654,9.137C359.279,108.577,358.062,111.619,355.625,114.165z"/>
<path d="M123.971,406.804c0,10.202,3.543,18.838,10.63,25.925c7.093,7.087,15.729,10.63,25.924,10.63h24.596l0.337,75.454c0,9.528,3.323,17.619,9.969,24.266s14.627,9.97,23.929,9.97c9.523,0,17.613-3.323,24.26-9.97s9.97-14.737,9.97-24.266v-75.447h45.864v75.447c0,9.528,3.322,17.619,9.969,24.266s14.73,9.97,24.26,9.97c9.523,0,17.613-3.323,24.26-9.97s9.969-14.737,9.969-24.266v-75.447h24.928c9.969,0,18.494-3.544,25.594-10.631c7.086-7.087,10.631-15.723,10.631-25.924V185.45H123.971V406.804z"/>
<path d="M476.275,179.141c-9.309,0-17.283,3.274-23.93,9.804c-6.646,6.542-9.969,14.578-9.969,24.094v142.914c0,9.541,3.322,17.619,9.969,24.266s14.627,9.97,23.93,9.97c9.523,0,17.613-3.323,24.26-9.97s9.969-14.725,9.969-24.266V213.039c0-9.517-3.322-17.552-9.969-24.094C493.888,182.415,485.798,179.141,476.275,179.141z"/>
	</symbol>
	<!-- Linux -->
	<symbol id="icon-linux" viewBox="0 0 24 24">
<path d="M20.581 19.049c-.55-.446-.336-1.431-.907-1.917.553-3.365-.997-6.331-2.845-8.232-1.551-1.595-1.051-3.147-1.051-4.49 0-2.146-.881-4.41-3.55-4.41-2.853 0-3.635 2.38-3.663 3.738-.068 3.262.659 4.11-1.25 6.484-2.246 2.793-2.577 5.579-2.07 7.057-.237.276-.557.582-1.155.835-1.652.72-.441 1.925-.898 2.78-.13.243-.192.497-.192.74 0 .75.596 1.399 1.679 1.302 1.461-.13 2.809.905 3.681.905.77 0 1.402-.438 1.696-1.041 1.377-.339 3.077-.296 4.453.059.247.691.917 1.141 1.662 1.141 1.631 0 1.945-1.849 3.816-2.475.674-.225 1.013-.879 1.013-1.488 0-.39-.139-.761-.419-.988zm-9.147-10.465c-.319 0-.583-.258-1-.568-.528-.392-1.065-.618-1.059-1.03 0-.283.379-.37.869-.681.526-.333.731-.671 1.249-.671.53 0 .69.268 1.41.579.708.307 1.201.427 1.201.773 0 .355-.741.609-1.158.868-.613.378-.928.73-1.512.73zm1.665-5.215c.882.141.981 1.691.559 2.454l-.355-.145c.184-.543.181-1.437-.435-1.494-.391-.036-.643.48-.697.922-.153-.064-.32-.11-.523-.127.062-.923.658-1.737 1.451-1.61zm-3.403.331c.676-.168 1.075.618 1.078 1.435l-.31.19c-.042-.343-.195-.897-.579-.779-.411.128-.344 1.083-.115 1.279l-.306.17c-.42-.707-.419-2.133.232-2.295zm-2.115 19.243c-1.963-.893-2.63-.69-3.005-.69-.777 0-1.031-.579-.739-1.127.248-.465.171-.952.11-1.343-.094-.599-.111-.794.478-1.052.815-.346 1.177-.791 1.447-1.124.758-.937 1.523.537 2.15 1.85.407.851 1.208 1.282 1.455 2.225.227.871-.71 1.801-1.896 1.261zm6.987-1.874c-1.384.673-3.147.982-4.466.299-.195-.563-.507-.927-.843-1.293.539-.142.939-.814.46-1.489-.511-.721-1.555-1.224-2.61-2.04-.987-.763-1.299-2.644.045-4.746-.655 1.862-.272 3.578.057 4.069.068-.988.146-2.638 1.496-4.615.681-.998.691-2.316.706-3.14l.62.424c.456.337.838.708 1.386.708.81 0 1.258-.466 1.882-.853.244-.15.613-.302.923-.513.52 2.476 2.674 5.454 2.795 7.15.501-1.032-.142-3.514-.142-3.514.842 1.285.909 2.356.946 3.67.589.241 1.221.869 1.279 1.696l-.245-.028c-.126-.919-2.607-2.269-2.83-.539-1.19.181-.757 2.066-.997 3.288-.11.559-.314 1.001-.462 1.466zm4.846-.041c-.985.38-1.65 1.187-2.107 1.688-.88.966-2.044.503-2.168-.401-.131-.966.36-1.493.572-2.574.193-.987-.023-2.506.431-2.668.295 1.753 2.066 1.016 2.47.538.657 0 .712.222.859.837.092.385.219.709.578 1.09.418.447.29 1.133-.635 1.49zm-8-13.006c-.651 0-1.138-.433-1.534-.769-.203-.171.05-.487.253-.315.387.328.777.675 1.281.675.607 0 1.142-.519 1.867-.805.247-.097.388.285.143.382-.704.277-1.269.832-2.01.832z"/>
	</symbol>
	<!-- 3GPP Standards -->
	<symbol id="icon-standards" viewBox="0 0 1024 1024">
		<path d="M214 554q124-122 299-122t297 122l-84 86q-88-88-214-88t-214 88zM384 726q52-52 128-52t128 52l-128 128zM42 384q196-194 471-194t469 194l-86 86q-160-158-384-158t-384 158z"/>
	</symbol>
	<!-- Agile -->
	<symbol id="icon-agile" viewBox="0 0 125 125">
<path d="M95.676,82.768l-9.069-4.856l0.111,3.479H60.11c-1.842,1.242-3.789,2.325-5.832,3.24H86.82l0.113,3.562L95.676,82.768z"/><path d="M63.491,74.224c3.263-3.263,5.824-7.063,7.614-11.294c1.854-4.381,2.793-9.035,2.793-13.832s-0.939-9.449-2.793-13.831   c-1.659-3.923-3.981-7.475-6.911-10.572l2.219-3.002l-0.778-0.089l-5.545-0.629l-3.899-0.443l1.031,2.365l2.994,6.881l0.082,0.188   l1.926-2.606c5.238,5.742,8.434,13.375,8.434,21.739c0,17.806-14.484,32.292-32.291,32.292c-6.641,0-12.819-2.016-17.957-5.466   l0.787,2.54l-2.592,0.172c1.864,1.248,3.844,2.319,5.93,3.201c4.381,1.854,9.035,2.793,13.831,2.793h3.296   c4.214-0.388,8.217-1.512,11.881-3.24h-0.335C57.036,79.631,60.491,77.225,63.491,74.224z"/><path d="M11.968,76.067l4.332,0.492l2.325,0.265l0,0l0,0l-2.874-6.603l-0.969-2.226l-0.264-0.605l0,0l0,0l-1.372,1.854   c-4.424-5.526-7.072-12.533-7.072-20.147c0-17.806,14.485-32.292,32.292-32.292c5.801,0,11.249,1.538,15.958,4.227L53.62,18.89   l3.13-0.208c-1.454-0.88-2.974-1.655-4.553-2.323c-4.381-1.854-9.035-2.793-13.831-2.793c-4.796,0-9.45,0.939-13.831,2.793   c-4.231,1.79-8.032,4.351-11.294,7.614s-5.825,7.062-7.614,11.294c-1.854,4.382-2.793,9.035-2.793,13.831s0.939,9.451,2.793,13.832   c1.388,3.281,3.24,6.303,5.523,9.016l-0.51,0.689l-2.239,3.027l0.712,0.082l0.204,0.022L11.968,76.067z"/><path d="M30.344,29.34c-2.645,1.073-5.018,2.648-7.053,4.683c-2.035,2.035-3.61,4.407-4.683,7.053   c-1.036,2.555-1.562,5.254-1.562,8.022c0,2.769,0.525,5.468,1.562,8.023c1.073,2.645,2.648,5.018,4.683,7.053   c2.035,2.034,4.408,3.609,7.053,4.682c1.981,0.805,4.049,1.301,6.168,1.483l0.411,2.742l0.433-0.344l3.033-2.415l1.365-1.085   l-2.077-0.817l-3.299-1.298l-0.369-0.146l0.205,1.369c-4.222-0.468-8.318-2.317-11.548-5.547c-7.555-7.555-7.555-19.846,0-27.401   c2.461-2.461,5.425-4.12,8.563-4.978l-1.208-0.609l1.241-1.417C32.271,28.638,31.298,28.954,30.344,29.34z"/><path d="M46.388,68.855c2.645-1.072,5.018-2.647,7.052-4.682c2.036-2.035,3.611-4.408,4.684-7.054   c1.036-2.554,1.562-5.253,1.562-8.022c0-2.768-0.525-5.467-1.562-8.022c-1.072-2.645-2.647-5.018-4.684-7.053   c-2.034-2.035-4.407-3.61-7.052-4.683c-2.368-0.96-4.861-1.482-7.417-1.553l-0.332-2.215l-0.369,0.293l-2.62,2.085l-1.842,1.466   l1.44,0.567l4.19,1.649l0.114,0.044l-0.288-1.923c4.658,0.214,9.252,2.096,12.801,5.645c7.556,7.555,7.556,19.846,0,27.401   c-2.817,2.817-6.293,4.584-9.937,5.299l1.412,0.744l-1.026,1.172C43.835,69.754,45.13,69.367,46.388,68.855z"/>
	</symbol>
	<!-- Scrum -->
	<symbol id="icon-scrum" viewBox="0 0 125 125">
<path d="M77.2,37.1c3.8,0,6.9-3.4,6.9-7.6S81,22,77.2,22s-6.9,3.4-6.9,7.6S73.4,37.1,77.2,37.1"/><path d="M90.6,47.4V42c0-4-3.2-4.9-7.2-4.9c0,0-2.6,2-6.2,2c-3.4,0-6.2-2-6.2-2c-3.9,0-7.2,1-7.2,5v5.3c0,0,6,3,13.4,2.7  C86,49.8,90.6,47.4,90.6,47.4z"/><path d="M45.7,20.1c3.8,0,6.9-3.4,6.9-7.6S49.4,5,45.7,5c-3.8,0-6.9,3.4-6.9,7.6S41.9,20.1,45.7,20.1"/><path d="M59,30.4v-5.3c0-4-3.2-4.9-7.2-4.9c0,0-2.6,2-6.2,2c-3.4,0-6.2-2-6.2-2c-3.9,0-7.2,1-7.2,5v5.3c0,0,6,3,13.4,2.7  C54.4,32.8,59,30.4,59,30.4z"/><path d="M54.8,82c3.8,0,6.9-3.4,6.9-7.6s-3.1-7.6-6.9-7.6c-3.8,0-6.9,3.4-6.9,7.6C47.9,78.6,51,82,54.8,82"/><path d="M68.1,92.2v-5.3c0-4-3.2-4.9-7.2-4.9c0,0-2.6,2-6.2,2c-3.4,0-6.2-2-6.2-2c-3.9,0-7.2,1-7.2,5v5.3c0,0,6,3,13.4,2.7  C63.6,94.6,68.1,92.2,68.1,92.2z"/><path d="M22.8,64.5c3.8,0,6.9-3.4,6.9-7.6s-3.1-7.6-6.9-7.6s-6.9,3.4-6.9,7.6S19,64.5,22.8,64.5"/><path d="M36.1,74.8v-5.3c0-4-3.2-4.9-7.2-4.9c0,0-2.6,2-6.2,2c-3.4,0-6.2-2-6.2-2c-3.9,0-7.2,1-7.2,5v5.3c0,0,6,3,13.4,2.7  C31.5,77.2,36.1,74.8,36.1,74.8z"/><path d="M67.9,59.7l-5.5-3.2c-0.1-0.1-0.3-0.1-0.4,0c-0.1,0.1-0.2,0.2-0.2,0.3v2.4h-5.7c2.6-1.6,4.3-4.5,4.3-7.8  c0-5.1-4.1-9.2-9.2-9.2c-2.7,0-5,1.1-6.7,2.9l0,0c-1.1,0.7-2.4,0.7-3.5,0.1c-1.7-0.9-2.4-3-1.5-4.8c0.4-0.8,1.2-1.4,2.1-1.7  c0.5-0.1,0.9-0.2,1.4-0.1l-0.3,0.7c-0.1,0.1-0.1,0.3,0,0.4c0.1,0.1,0.2,0.2,0.3,0.2l0,0l3.2-0.2c0.1,0,0.2-0.1,0.3-0.2  c0.1-0.1,0-0.3,0-0.4l-1.8-2.6c-0.1-0.1-0.2-0.2-0.3-0.2s-0.2,0.1-0.3,0.2l-0.4,0.8c-0.8-0.2-1.7-0.1-2.5,0.1  c-1.3,0.4-2.3,1.3-2.9,2.4c-1.3,2.4-0.4,5.4,2.1,6.7c0.7,0.4,1.5,0.6,2.3,0.6c0.2,0,0.3,0,0.5,0c-0.3,0.6-0.6,1.3-0.8,2l-2.6,0.1  c-0.1,0-0.2,0.1-0.3,0.2c-0.1,0.1-0.1,0.3,0,0.4l3.3,5.4c0.1,0.1,0.2,0.2,0.3,0.2l0,0c0.1,0,0.2-0.1,0.3-0.2l3-5.6  c0.1-0.1,0.1-0.3,0-0.4C46.3,49.1,46.1,49,46,49l-2.2,0.1c1-3.1,3.9-5.4,7.4-5.4c4.3,0,7.8,3.5,7.8,7.8s-3.5,7.8-7.8,7.8H34.3v1.5  h27.6v2.4c0,0.1,0.1,0.3,0.2,0.3c0.1,0,0.1,0,0.2,0c0.1,0,0.1,0,0.2,0l5.5-3.1c0.1-0.1,0.2-0.2,0.2-0.3C68.1,59.9,68,59.8,67.9,59.7  z"/>
	</symbol>
	<!-- Portfolio page icons -->
	<!-- View live -->
	<symbol id="icon-link" viewBox="0 0 16 16">
		<path d="M15.798,3.516 L11.892,0.266 C11.615,-0.022 11.299,-0.069 11.021,0.218 C11.021,0.218 11.058,2.408 11.027,2.408 C10.347,2.408 9.944,2.521 9.327,2.722 C8.505,2.993 7.755,3.428 7.119,3.99 C5.843,5.113 5.026,6.392 5.026,8.203 C5.026,9.385 5.549,8.955 5.768,8.542 C6.803,6.597 8.691,5.614 11.049,5.614 C11.079,5.614 11.048,7.76 11.048,7.76 C11.326,8.047 11.676,8.013 11.917,7.807 L15.798,4.557 C16.076,4.268 16.076,3.804 15.798,3.516 L15.798,3.516 Z"/>
		<path d="M14,8.079 L14,13.062 L0.938,13.062 L0.938,3.937 L6.153,3.937 C6.429,3.625 6.774,3.22 7.376,3.018 L0.00800000003,3.018 L0.00800000003,13.982 L14.97,13.982 L14.97,7.258 L14,8.079 L14,8.079 Z"/>
	</symbol>
	<!-- View static -->
	<symbol id="icon-preview" viewBox="0 0 1024 1024">
		<path d="M512 192c-223.318 0-416.882 130.042-512 320 95.118 189.958 288.682 320 512 320 223.312 0 416.876-130.042 512-320-95.116-189.958-288.688-320-512-320zM764.45 361.704c60.162 38.374 111.142 89.774 149.434 150.296-38.292 60.522-89.274 111.922-149.436 150.296-75.594 48.218-162.89 73.704-252.448 73.704-89.56 0-176.858-25.486-252.452-73.704-60.158-38.372-111.138-89.772-149.432-150.296 38.292-60.524 89.274-111.924 149.434-150.296 3.918-2.5 7.876-4.922 11.86-7.3-9.96 27.328-15.41 56.822-15.41 87.596 0 141.382 114.616 256 256 256 141.382 0 256-114.618 256-256 0-30.774-5.452-60.268-15.408-87.598 3.978 2.378 7.938 4.802 11.858 7.302v0zM512 416c0 53.020-42.98 96-96 96s-96-42.98-96-96 42.98-96 96-96 96 42.982 96 96z"/>
	</symbol>
	<!-- View code -->
	<symbol id="icon-code" viewBox="0 0 17 16">
		<path d="M11.74,10.993 C11.918,10.993 12.096,10.928 12.233,10.798 L15.712,7.482 C15.983,7.221 15.983,6.802 15.712,6.543 L12.233,3.225 C11.961,2.966 11.521,2.966 11.249,3.225 C10.978,3.486 10.978,3.906 11.249,4.163 L14.236,7.013 L11.249,9.861 C10.978,10.12 10.978,10.541 11.249,10.799 C11.385,10.928 11.563,10.993 11.74,10.993 L11.74,10.993 Z"/>
		<path d="M4.301,10.883 C4.121,10.883 3.942,10.821 3.804,10.693 L0.287,7.425 C0.012,7.17 0.012,6.756 0.287,6.502 L3.804,3.234 C4.078,2.978 4.524,2.978 4.799,3.234 C5.072,3.49 5.072,3.903 4.799,4.158 L1.779,6.963 L4.799,9.767 C5.072,10.023 5.072,10.437 4.799,10.693 C4.661,10.82 4.48,10.883 4.301,10.883 L4.301,10.883 Z"/>
		<path d="M6.685,13.889 C6.928,13.832 7.131,13.64 7.188,13.379 L9.934,0.885 C10.012,0.531 9.793,0.188 9.446,0.117 C9.096,0.047 8.753,0.277 8.676,0.631 L5.93,13.125 C5.852,13.477 6.072,13.82 6.418,13.891 C6.51,13.909 6.601,13.907 6.685,13.889 L6.685,13.889 Z"/>
	</symbol>
</svg>
